<svg version="1.1" id="Layer_1" xmlns="http://www.w3.org/2000/svg" xmlns:xlink="http://www.w3.org/1999/xlink" x="0px" y="0px"
	 width="100%" viewBox="0 0 1024 1024" enable-background="new 0 0 1024 1024" xml:space="preserve">
<path fill="#FFFFFF" opacity="1.000000" stroke="none" 
	d="
M473.000000,1025.000000 
	C315.333344,1025.000000 158.166672,1025.000000 1.000000,1025.000000 
	C1.000000,683.666687 1.000000,342.333344 1.000000,1.000000 
	C342.333344,1.000000 683.666687,1.000000 1025.000000,1.000000 
	C1025.000000,342.333344 1025.000000,683.666687 1025.000000,1025.000000 
	C841.166687,1025.000000 657.333313,1025.000000 473.000000,1025.000000 
M250.052521,491.012695 
	C249.121429,496.191010 247.082764,501.446869 247.439011,506.535034 
	C249.748581,539.520935 253.455414,572.122498 264.679016,603.767151 
	C271.744476,623.688110 279.783691,643.129456 289.248413,661.793274 
	C302.814178,688.544189 321.666138,711.797852 341.878998,734.046143 
	C360.543396,754.590088 381.859222,770.865967 407.457489,781.559082 
	C413.124969,783.926453 418.724976,786.460999 424.310181,789.018677 
	C447.306061,799.549744 470.693634,809.183228 495.279968,815.209839 
	C513.279236,819.621765 531.605591,822.750549 549.853333,826.083984 
	C570.285522,829.816345 590.778870,829.341431 612.126282,826.040161 
	C640.401733,825.623108 668.309326,822.604736 695.164429,813.221069 
	C718.691528,805.000183 742.235596,796.777039 765.433105,787.689331 
	C774.611938,784.093506 783.054077,778.447876 791.501770,773.204102 
	C799.411621,768.294006 806.998596,762.836670 814.529297,757.347961 
	C834.943359,742.469299 855.474670,727.947815 868.487122,705.091187 
	C877.593079,689.096619 889.777161,674.819153 898.493774,658.646912 
	C909.675964,637.900391 920.810120,616.986877 927.516113,594.065125 
	C931.083984,581.869751 925.824402,570.069702 913.242676,567.708984 
	C904.497375,566.068054 895.397034,565.147583 886.533020,565.563110 
	C869.863647,566.344543 853.791565,563.396790 837.833252,559.531372 
	C829.506714,557.514465 821.654297,553.287598 813.278137,551.787964 
	C800.838379,549.560608 790.172058,543.321533 779.614624,537.522583 
	C767.764038,531.013245 757.052124,522.234619 746.441711,513.701111 
	C716.364929,489.511627 689.975220,460.908600 657.600464,439.442963 
	C651.366333,435.309509 645.585327,430.474213 639.249756,426.515656 
	C617.003296,412.615631 596.271667,396.262665 572.342468,385.081848 
	C569.187012,383.607452 566.138672,381.872528 562.906433,380.599091 
	C546.390930,374.092316 529.978577,367.279541 513.243103,361.389160 
	C498.573303,356.225800 482.579956,356.377899 467.954254,350.197144 
	C456.514099,345.362549 447.100037,339.151703 443.398987,326.880524 
	C441.504211,320.598175 440.802521,313.954681 439.581299,307.470734 
	C434.483124,280.402588 425.882385,254.441040 412.608826,230.359634 
	C407.913544,221.841309 400.760529,214.297180 393.489105,207.669205 
	C382.799103,197.925217 370.538544,190.306366 356.838593,184.970612 
	C345.403931,180.517120 334.100677,175.500534 321.732422,175.154770 
	C308.782227,174.792709 295.700989,174.788086 282.854950,176.221466 
	C269.386658,177.724289 255.739456,179.896774 242.878555,183.997406 
	C226.653793,189.170609 212.373322,198.505402 199.462173,209.882721 
	C185.939835,221.798630 175.272110,236.014053 165.995209,251.181595 
	C155.601822,268.174530 150.978104,287.213684 148.645157,307.059357 
	C146.389374,307.519257 143.951782,307.576385 141.905411,308.500153 
	C115.839012,320.267151 89.818260,332.135498 63.812561,344.036346 
	C58.276230,346.569916 55.978840,350.627563 56.760399,355.875732 
	C57.508648,360.900269 60.779217,363.978180 66.554558,364.984985 
	C85.859627,368.350433 105.174065,371.662354 124.474495,375.054138 
	C139.695511,377.729065 154.901138,380.491577 170.382858,383.806549 
	C176.900116,392.624847 182.268311,402.689301 190.185455,409.989441 
	C204.530975,423.217010 220.372879,434.825500 235.641434,447.045746 
	C239.633606,450.240845 244.489578,452.674683 245.711838,458.238495 
	C248.035782,468.817261 253.043793,479.026215 250.052521,491.012695 
z"/>
<path fill="#163B72" opacity="1.000000" stroke="none" 
	d="
M149.393845,306.996582 
	C150.978104,287.213684 155.601822,268.174530 165.995209,251.181595 
	C175.272110,236.014053 185.939835,221.798630 199.462173,209.882721 
	C212.373322,198.505402 226.653793,189.170609 242.878555,183.997406 
	C255.739456,179.896774 269.386658,177.724289 282.854950,176.221466 
	C295.700989,174.788086 308.782227,174.792709 321.732422,175.154770 
	C334.100677,175.500534 345.403931,180.517120 356.838593,184.970612 
	C370.538544,190.306366 382.799103,197.925217 393.489105,207.669205 
	C400.760529,214.297180 407.913544,221.841309 412.608826,230.359634 
	C425.882385,254.441040 434.483124,280.402588 439.581299,307.470734 
	C440.802521,313.954681 441.504211,320.598175 443.398987,326.880524 
	C447.100037,339.151703 456.514099,345.362549 467.954254,350.197144 
	C482.579956,356.377899 498.573303,356.225800 513.243103,361.389160 
	C529.978577,367.279541 546.390930,374.092316 562.906433,380.599091 
	C566.138672,381.872528 569.187012,383.607452 572.342468,385.081848 
	C596.271667,396.262665 617.003296,412.615631 639.249756,426.515656 
	C645.585327,430.474213 651.366333,435.309509 657.600464,439.442963 
	C689.975220,460.908600 716.364929,489.511627 746.441711,513.701111 
	C757.052124,522.234619 767.764038,531.013245 779.614624,537.522583 
	C790.172058,543.321533 800.838379,549.560608 813.278137,551.787964 
	C821.654297,553.287598 829.506714,557.514465 837.833252,559.531372 
	C853.791565,563.396790 869.863647,566.344543 886.533020,565.563110 
	C895.397034,565.147583 904.497375,566.068054 913.242676,567.708984 
	C925.824402,570.069702 931.083984,581.869751 927.516113,594.065125 
	C920.810120,616.986877 909.675964,637.900391 898.493774,658.646912 
	C889.777161,674.819153 877.593079,689.096619 868.487122,705.091187 
	C855.474670,727.947815 834.943359,742.469299 814.529297,757.347961 
	C806.998596,762.836670 799.411621,768.294006 791.501770,773.204102 
	C783.054077,778.447876 774.611938,784.093506 765.433105,787.689331 
	C742.235596,796.777039 718.691528,805.000183 695.164429,813.221069 
	C668.309326,822.604736 640.401733,825.623108 611.857361,825.709167 
	C616.013245,822.837036 618.808472,818.973389 617.917419,813.937561 
	C616.602112,806.504211 615.627136,798.632141 612.373962,791.992065 
	C603.028198,772.916687 592.705994,754.314819 582.578247,735.629517 
	C576.800171,724.969421 570.905945,714.355286 564.596375,704.005554 
	C558.907043,694.673096 552.754578,685.607727 546.496521,676.640808 
	C535.850159,661.385803 524.950867,646.307495 514.175781,631.142212 
	C503.015991,615.435608 492.306885,599.382690 480.547668,584.139282 
	C474.710297,576.572388 466.595306,570.809937 460.148865,563.656128 
	C444.243744,546.005615 424.787415,532.824219 405.068237,520.203369 
	C381.861603,505.350433 356.191498,495.537750 330.223419,486.479187 
	C310.128174,479.469208 289.661835,478.080444 268.728149,480.151550 
	C261.095886,480.906677 254.489883,483.394043 250.308548,490.332397 
	C253.043793,479.026215 248.035782,468.817261 245.711838,458.238495 
	C244.489578,452.674683 239.633606,450.240845 235.641434,447.045746 
	C220.372879,434.825500 204.530975,423.217010 190.185455,409.989441 
	C182.268311,402.689301 176.900116,392.624847 170.538757,383.423523 
	C170.061295,381.069885 169.735764,378.927124 168.745590,377.155945 
	C161.155441,363.578827 153.788589,350.029083 152.784943,333.926971 
	C152.223206,324.914734 150.560471,315.971130 149.393845,306.996582 
z"/>
<path fill="#EA4333" opacity="1.000000" stroke="none" 
	d="
M250.180542,490.672546 
	C254.489883,483.394043 261.095886,480.906677 268.728149,480.151550 
	C289.661835,478.080444 310.128174,479.469208 330.223419,486.479187 
	C356.191498,495.537750 381.861603,505.350433 405.068237,520.203369 
	C424.787415,532.824219 444.243744,546.005615 460.148865,563.656128 
	C466.595306,570.809937 474.710297,576.572388 480.547668,584.139282 
	C492.306885,599.382690 503.015991,615.435608 514.175781,631.142212 
	C524.950867,646.307495 535.850159,661.385803 546.496521,676.640808 
	C552.754578,685.607727 558.907043,694.673096 564.596375,704.005554 
	C570.905945,714.355286 576.800171,724.969421 582.578247,735.629517 
	C592.705994,754.314819 603.028198,772.916687 612.373962,791.992065 
	C615.627136,798.632141 616.602112,806.504211 617.917419,813.937561 
	C618.808472,818.973389 616.013245,822.837036 611.407959,825.641235 
	C590.778870,829.341431 570.285522,829.816345 549.853333,826.083984 
	C531.605591,822.750549 513.279236,819.621765 495.279968,815.209839 
	C470.693634,809.183228 447.306061,799.549744 424.310181,789.018677 
	C418.724976,786.460999 413.124969,783.926453 407.457489,781.559082 
	C381.859222,770.865967 360.543396,754.590088 341.878998,734.046143 
	C321.666138,711.797852 302.814178,688.544189 289.248413,661.793274 
	C279.783691,643.129456 271.744476,623.688110 264.679016,603.767151 
	C253.455414,572.122498 249.748581,539.520935 247.439011,506.535034 
	C247.082764,501.446869 249.121429,496.191010 250.180542,490.672546 
z"/>
<path fill="#EA4333" opacity="1.000000" stroke="none" 
	d="
M149.019501,307.027954 
	C150.560471,315.971130 152.223206,324.914734 152.784943,333.926971 
	C153.788589,350.029083 161.155441,363.578827 168.745590,377.155945 
	C169.735764,378.927124 170.061295,381.069885 170.404144,383.127869 
	C154.901138,380.491577 139.695511,377.729065 124.474495,375.054138 
	C105.174065,371.662354 85.859627,368.350433 66.554558,364.984985 
	C60.779217,363.978180 57.508648,360.900269 56.760399,355.875732 
	C55.978840,350.627563 58.276230,346.569916 63.812561,344.036346 
	C89.818260,332.135498 115.839012,320.267151 141.905411,308.500153 
	C143.951782,307.576385 146.389374,307.519257 149.019501,307.027954 
z"/>
</svg>